<mxfile host="app.diagrams.net" modified="2024-07-09T11:44:47.900Z" agent="Mozilla/5.0 (Windows NT 10.0; Win64; x64; rv:128.0) Gecko/20100101 Firefox/128.0" version="24.5.5" etag="1b5oEUCbr0G6OCQrrGm0" type="github">
  <diagram name="Page-1" id="b1DFAVlivFPqUUjWmWMC">
    <mxGraphModel>
      <root>
        <mxCell id="0" />
        <mxCell id="1" parent="0" />
      </root>
    </mxGraphModel>
  </diagram>
</mxfile>
